<?xml version="1.0" encoding="UTF-8"?>
<svg id="Layer_2" data-name="Layer 2" xmlns="http://www.w3.org/2000/svg" viewBox="0 0 103.06 48.82">
  <defs>
    <style>
      .cls-1 {
        fill: none;
        stroke: #5d631f;
        stroke-miterlimit: 10;
        stroke-width: 4px;
      }

      .cls-2 {
        fill: #5d631f;
        stroke-width: 0px;
      }
    </style>
  </defs>
  <g id="Layer_1-2" data-name="Layer 1">
    <g>
      <path class="cls-2" d="M24.35,4c11.22,0,20.35,9.13,20.35,20.35s-9.13,20.35-20.35,20.35S4,35.58,4,24.35,13.13,4,24.35,4M24.35,0C10.9,0,0,10.9,0,24.35s10.9,24.35,24.35,24.35,24.35-10.9,24.35-24.35S37.8,0,24.35,0h0Z"/>
      <path class="cls-2" d="M78.71,4c11.22,0,20.35,9.13,20.35,20.35s-9.13,20.35-20.35,20.35-20.35-9.13-20.35-20.35,9.13-20.35,20.35-20.35M78.71,0c-13.45,0-24.35,10.9-24.35,24.35s10.9,24.35,24.35,24.35,24.35-10.9,24.35-24.35S92.16,0,78.71,0h0Z"/>
      <line class="cls-1" x1="24.96" y1="46.82" x2="79.06" y2="46.82"/>
    </g>
  </g>
</svg>